<svg
                      width="14"
                      height="14"
                      viewBox="0 0 14 14"
                      fill="none"
                      xmlns="http://www.w3.org/2000/svg"
                    >
                      <g clip-path="url(#clip0_115_380)">
                        <rect
                          width="14"
                          height="14"
                          fill="white"
                          fill-opacity="0.01"
                        />
                        <g clip-path="url(#clip1_115_380)">
                          <path
                            d="M11.6888 9.83243C13.1771 8.50418 13.9996 6.99918 13.9996 6.99918C13.9996 6.99918 11.3746 2.18668 6.99963 2.18668C6.15928 2.18957 5.32843 2.36467 4.55838 2.70118L5.23213 3.3758C5.79864 3.16944 6.39671 3.06315 6.99963 3.06168C8.85463 3.06168 10.3938 4.08368 11.5216 5.21155C12.0644 5.75728 12.5511 6.35616 12.9741 6.99918C12.9234 7.0753 12.8674 7.1593 12.8035 7.25118C12.5104 7.67118 12.0773 8.23118 11.5216 8.7868C11.3773 8.93118 11.2268 9.0738 11.0693 9.21205L11.6888 9.83243Z"
                            fill="#6C757D"
                          />
                          <path
                            d="M9.88451 8.02818C10.0798 7.48204 10.1159 6.89168 9.98878 6.32579C9.86164 5.75991 9.57641 5.24176 9.16629 4.83164C8.75617 4.42153 8.23803 4.1363 7.67214 4.00915C7.10625 3.88201 6.5159 3.91817 5.96976 4.11343L6.68988 4.83355C7.02615 4.78542 7.36902 4.81627 7.6913 4.92364C8.01358 5.03102 8.30642 5.21198 8.54662 5.45219C8.78683 5.69239 8.96779 5.98523 9.07517 6.30751C9.18254 6.6298 9.21339 6.97266 9.16526 7.30893L9.88451 8.02818ZM7.30938 9.1648L8.02863 9.88405C7.4825 10.0793 6.89214 10.1155 6.32625 9.98833C5.76037 9.86118 5.24222 9.57595 4.8321 9.16583C4.42198 8.75572 4.13676 8.23757 4.00961 7.67168C3.88246 7.1058 3.91862 6.51544 4.11388 5.9693L4.83401 6.68943C4.78588 7.0257 4.81672 7.36856 4.9241 7.69084C5.03148 8.01312 5.21244 8.30596 5.45264 8.54617C5.69285 8.78637 5.98569 8.96733 6.30797 9.07471C6.63025 9.18209 6.97311 9.21293 7.30938 9.1648Z"
                            fill="#6C757D"
                          />
                          <path
                            d="M2.93088 4.78543C2.77338 4.92543 2.62201 5.06718 2.47763 5.21155C1.93482 5.75728 1.44821 6.35616 1.02513 6.99918L1.19576 7.25118C1.48888 7.67118 1.92201 8.23118 2.47763 8.7868C3.60551 9.91468 5.14551 10.9367 6.99963 10.9367C7.62613 10.9367 8.21588 10.8203 8.76713 10.6217L9.44088 11.2972C8.67083 11.6337 7.83999 11.8088 6.99963 11.8117C2.62463 11.8117 -0.000366211 6.99918 -0.000366211 6.99918C-0.000366211 6.99918 0.821259 5.4933 2.31051 4.16593L2.93001 4.7863L2.93088 4.78543ZM11.9399 12.5589L1.43988 2.05893L2.05938 1.43943L12.5594 11.9394L11.9399 12.5589Z"
                            fill="#6C757D"
                          />
                        </g>
                      </g>
                      <defs>
                        <clipPath id="clip0_115_380">
                          <rect width="14" height="14" fill="white" />
                        </clipPath>
                        <clipPath id="clip1_115_380">
                          <rect width="14" height="14" fill="white" />
                        </clipPath>
                      </defs>
                    </svg>